<?xml version="1.0" encoding="UTF-8"?>
<svg width="28px" height="27px" viewBox="0 0 28 27" version="1.1" xmlns="http://www.w3.org/2000/svg" xmlns:xlink="http://www.w3.org/1999/xlink">
    <!-- Generator: Sketch 51.2 (57519) - http://www.bohemiancoding.com/sketch -->
    <title>Combined Shape</title>
    <desc>Created with Sketch.</desc>
    <defs></defs>
    <g id="page" stroke="none" stroke-width="1" fill="none" fill-rule="evenodd">
        <g id="Menu" transform="translate(-337.000000, -123.000000)" fill="#FF6D6D">
            <path d="M350.0816,128.695055 C351.462312,128.695055 352.5816,129.814343 352.5816,131.195055 L352.5816,141.195055 C352.5816,142.575767 351.462312,143.695055 350.0816,143.695055 C348.700888,143.695055 347.5816,142.575767 347.5816,141.195055 L347.5816,131.195055 C347.5816,129.814343 348.700888,128.695055 350.0816,128.695055 Z M364.486529,131.512506 C365.716752,132.139336 366.205899,133.644775 365.579069,134.874998 L361.039164,143.785064 C360.412334,145.015287 358.906895,145.504434 357.676671,144.877604 C356.446448,144.250774 355.957301,142.745334 356.584131,141.515111 L361.124036,132.605046 C361.750866,131.374823 363.256305,130.885676 364.486529,131.512506 Z M335.676671,131.830031 C336.906895,131.203201 338.412334,131.692348 339.039164,132.922571 L343.579069,141.832636 C344.205899,143.06286 343.716752,144.568299 342.486529,145.195129 C341.256305,145.821959 339.750866,145.332812 339.124036,144.102589 L334.584131,135.192524 C333.957301,133.9623 334.446448,132.456861 335.676671,131.830031 Z" id="Combined-Shape" transform="translate(350.081600, 137.081600) rotate(45.000000) translate(-350.081600, -137.081600) "></path>
        </g>
    </g>
</svg>